# xmcd
#
# Track frame offsets: 
#        150
#        11170
#        22877
#        33635
#        46265
#        56010
#        66187
#        78072
#        92345
#        105800
#        117710
#        128815
#        139137
#        152107
#
# Disc length: 2155 seconds
#
# Revision: 5
# Processed by: cddbd v1.5.2PL0 Copyright (c) Steve Scherf et al.
# Submitted via: ExactAudioCopy v1.1
#
DISCID=ad08690e
DTITLE=Buck Owens - On The Bandstand (1963)
DYEAR=2012
DGENRE=Country
TTITLE0=Saw Mill
TTITLE1=King Of Fools
TTITLE2=Sally Was A Good Old Girl
TTITLE3=I Can't Stop (My Lovin' You)
TTITLE4=Orange Blossom Special
TTITLE5=Cotton Fields
TTITLE6=Kickin' Our Hearts Around
TTITLE7=Touch Me
TTITLE8=Sweethearts In Heaven
TTITLE9=Release Me
TTITLE10=One Way Love
TTITLE11=Diggy Liggy Lo
TTITLE12=Sweethearts In Heaven (With Rose Maddox)
TTITLE13=We're The Talk Of The Town (With Rose Maddox)
EXTD=
EXTT0=
EXTT1=
EXTT2=
EXTT3=
EXTT4=
EXTT5=
EXTT6=
EXTT7=
EXTT8=
EXTT9=
EXTT10=
EXTT11=
EXTT12=
EXTT13=
PLAYORDER=
